<svg width="17" height="19" viewBox="0 0 17 19" fill="none" xmlns="http://www.w3.org/2000/svg">
<path d="M5.91263 16.6683C6.50025 17.187 7.27212 17.5017 8.11749 17.5017C8.96286 17.5017 9.73473 17.187 10.3223 16.6683M13.1175 5.835C13.1175 4.50892 12.5907 3.23715 11.653 2.29947C10.7153 1.36178 9.44357 0.834999 8.11749 0.834999C6.79141 0.834999 5.51964 1.36178 4.58195 2.29947C3.64427 3.23715 3.11749 4.50892 3.11749 5.835C3.11749 8.41015 2.46788 10.1733 1.74221 11.3395C1.13009 12.3232 0.824036 12.8151 0.835259 12.9523C0.847685 13.1042 0.879871 13.1622 1.0023 13.253C1.11287 13.335 1.61131 13.335 2.6082 13.335H13.6268C14.6237 13.335 15.1221 13.335 15.2327 13.253C15.3551 13.1622 15.3873 13.1042 15.3997 12.9523C15.4109 12.8151 15.1049 12.3232 14.4928 11.3395C13.7671 10.1733 13.1175 8.41015 13.1175 5.835Z" stroke="#A4A7AE" stroke-width="1.67" stroke-linecap="round" stroke-linejoin="round"/>
</svg>
