<svg width="204" height="49" viewBox="0 0 204 49" fill="none" xmlns="http://www.w3.org/2000/svg">
<mask id="mask0_4003_9417" style="mask-type:alpha" maskUnits="userSpaceOnUse" x="1" y="0" width="203" height="57">
<rect width="202" height="56" transform="translate(1.00024 0.410828)" fill="url(#paint0_linear_4003_9417)"/>
</mask>
<g mask="url(#mask0_4003_9417)">
<path opacity="0.1" d="M196.673 8.64025L202.811 17.1488C202.934 17.3192 203 17.5239 203 17.7339V55.4108C203 55.9631 202.553 56.4108 202 56.4108H2.64051C1.8918 56.4108 1.40864 55.6183 1.75159 54.9528L7.69255 43.4238C7.96916 42.887 8.65479 42.716 9.1511 43.0599L14.9797 47.0996C15.2596 47.2935 15.6189 47.3318 15.9333 47.201L22.6431 44.4108L29.5656 40.5726C29.755 40.4676 29.9733 40.4269 30.1878 40.4566L36.4176 41.3202C36.8143 41.3752 37.2056 41.1881 37.4119 40.8449L43.4657 30.7752C43.8455 30.1435 44.7548 30.1257 45.159 30.742L50.8859 39.4741C51.2133 39.9734 51.9025 40.0763 52.3615 39.6945L58.3122 34.7454C58.5642 34.5358 58.9029 34.4631 59.2188 34.5506L65.2936 36.2347C65.679 36.3416 66.091 36.2086 66.3411 35.8965L72.1499 28.6499C72.6103 28.0756 73.5124 28.1786 73.8314 28.8419L79.7115 41.0679C80.0197 41.7086 80.8792 41.8322 81.3553 41.3042L86.7037 35.3734C87.1425 34.8867 87.9231 34.9467 88.2825 35.4947L93.518 43.4776C93.9985 44.2101 95.1217 44.0147 95.3265 43.1629L101.693 16.6891C101.847 16.0464 102.572 15.7278 103.15 16.0483L108.344 18.9282C108.826 19.1951 109.432 19.0228 109.701 18.5427L115.949 7.39977C116.215 6.92449 116.813 6.75004 117.294 7.00746L122.872 9.99737C123.313 10.2341 123.862 10.1074 124.155 9.70107L130.133 1.41497C130.506 0.898349 131.26 0.85726 131.687 1.33034L137.877 8.19464C138.004 8.33583 138.169 8.43781 138.352 8.4886L144.9 10.3037C145.148 10.3725 145.412 10.343 145.639 10.2215L151.969 6.82887C152.296 6.65361 152.693 6.67377 153 6.88125L159.155 11.0335C159.493 11.2615 159.936 11.2615 160.274 11.0335L165.905 7.23474C166.432 6.87901 167.153 7.09951 167.391 7.68933L173.544 22.9278C173.821 23.6129 174.719 23.7718 175.214 23.2231L180.884 16.936C181.168 16.6213 181.619 16.5196 182.01 16.6824L187.775 19.0796C188.233 19.2699 188.761 19.0963 189.016 18.6715L195.005 8.71007C195.375 8.09491 196.253 8.05815 196.673 8.64025Z" fill="#17B26A"/>
</g>
<path d="M203 17.4108L196.673 8.64025C196.253 8.05815 195.375 8.09491 195.005 8.71007L189.016 18.6715C188.761 19.0963 188.233 19.2699 187.775 19.0796L182.01 16.6824C181.619 16.5196 181.168 16.6213 180.884 16.936L175.214 23.2231C174.719 23.7718 173.821 23.6129 173.544 22.9278L167.391 7.68933C167.153 7.09951 166.432 6.87901 165.905 7.23474L160.274 11.0335C159.936 11.2615 159.493 11.2615 159.155 11.0335L153 6.88125C152.693 6.67377 152.296 6.65361 151.969 6.82887L145.639 10.2215C145.412 10.343 145.148 10.3725 144.9 10.3037L138.352 8.4886C138.169 8.43781 138.004 8.33583 137.877 8.19464L131.687 1.33034C131.26 0.85726 130.506 0.898349 130.133 1.41497L124.155 9.70107C123.862 10.1074 123.313 10.2341 122.872 9.99737L117.294 7.00746C116.813 6.75004 116.215 6.92449 115.949 7.39977L109.701 18.5427C109.432 19.0228 108.825 19.1951 108.344 18.9282L103.15 16.0483C102.572 15.7278 101.847 16.0464 101.693 16.6891L95.3265 43.1629C95.1217 44.0147 93.9985 44.2101 93.518 43.4776L88.2825 35.4947C87.9231 34.9467 87.1425 34.8867 86.7037 35.3734L81.3553 41.3042C80.8792 41.8322 80.0197 41.7086 79.7115 41.0679L73.8314 28.8419C73.5123 28.1786 72.6103 28.0756 72.1499 28.6499L66.3411 35.8965C66.091 36.2086 65.679 36.3416 65.2936 36.2347L59.2188 34.5506C58.9029 34.4631 58.5642 34.5358 58.3122 34.7454L52.3615 39.6945C51.9025 40.0763 51.2133 39.9734 50.8859 39.4741L45.159 30.742C44.7548 30.1257 43.8455 30.1435 43.4657 30.7752L37.4119 40.8449C37.2056 41.1881 36.8143 41.3752 36.4176 41.3202L30.1878 40.4566C29.9733 40.4269 29.755 40.4676 29.5656 40.5726L22.6431 44.4108L15.9333 47.201C15.6189 47.3318 15.2596 47.2935 14.9797 47.0996L9.1511 43.0599C8.65479 42.716 7.96916 42.887 7.69255 43.4238L1.00024 56.4108" stroke="#17B26A" stroke-width="2" stroke-linecap="round" stroke-linejoin="round"/>
<defs>
<linearGradient id="paint0_linear_4003_9417" x1="101" y1="0" x2="101" y2="56" gradientUnits="userSpaceOnUse">
<stop/>
<stop offset="1" stop-opacity="0"/>
</linearGradient>
</defs>
</svg>
