<svg width="976" height="167" viewBox="0 0 976 167" preserveAspectRatio="none" fill="none" xmlns="http://www.w3.org/2000/svg">
<mask id="mask0_4207_4533" style="mask-type:alpha" maskUnits="userSpaceOnUse" x="0" y="0" width="976" height="167">
<rect width="976" height="167" fill="url(#paint0_linear_4207_4533)"/>
</mask>
<g mask="url(#mask0_4207_4533)">
<path opacity="0.08" d="M976 167H0V54.2969C0.314708 54.2965 0.633484 54.2723 0.954102 54.2207L22.8145 50.7002L44.7119 49.1045L66.874 52.334C67.3003 52.3961 67.7324 52.4122 68.1621 52.3818L91.4434 50.7354H114.742C114.887 50.7354 115.033 50.7303 115.178 50.7197L137.773 49.0732H158.98C159.18 49.0732 159.38 49.0638 159.578 49.0439L181.099 46.8877L202.62 49.0439C203.111 49.0931 203.607 49.0808 204.095 49.0088L229.669 45.2334L248.325 46.8359C248.655 46.8643 248.987 46.8653 249.317 46.8389L270.055 45.1768L290.364 43.5488L316.199 45.1836C316.496 45.2024 316.794 45.1993 317.091 45.1738L336.445 43.5127C336.639 43.4961 336.832 43.4699 337.023 43.4346L354.863 40.1348L378.861 36.8389L402.631 34.1182H426.481C426.611 34.1182 426.742 34.1139 426.871 34.1055L451.973 32.4736L469.476 34.0928C469.659 34.1098 469.844 34.1182 470.028 34.1182H479.923L496.472 36.7705L516.274 41.6953C516.592 41.7744 516.916 41.8273 517.243 41.8535L537.979 43.5156C538.139 43.5284 538.299 43.5342 538.459 43.5342H546.062C546.799 43.5342 547.529 43.3991 548.217 43.1348L564.894 36.7188L582.091 34.0684L597.694 32.4385L628.638 30.7861C629.247 30.7536 629.848 30.6277 630.419 30.4141L639.979 26.8379L661.897 25.2412L687.955 23.5938H698.452C700.648 23.8706 703.807 24.2616 706.605 24.5908C708.086 24.765 709.484 24.9247 710.591 25.041C711.508 25.1374 712.666 25.2558 713.337 25.2559C713.247 25.2559 713.374 25.2572 713.949 25.293C714.428 25.3227 715.077 25.3661 715.863 25.4219C717.432 25.5332 719.502 25.6885 721.762 25.8613C726.109 26.1937 731.13 26.5893 734.578 26.8652L752.162 30.6592C752.578 30.7489 753.002 30.7949 753.428 30.7949H774.855C775.225 30.7949 775.594 30.7603 775.958 30.6924L795.807 26.9805L809.425 28.54C809.492 28.5478 809.56 28.5541 809.628 28.5596L837.277 30.7754C837.691 30.8085 838.108 30.7989 838.52 30.7461L855.59 28.5566L885.094 26.9082C885.3 26.8967 885.505 26.8744 885.709 26.8418C887.419 26.5677 890.052 26.1564 892.384 25.8154C893.553 25.6445 894.621 25.4944 895.451 25.3887C896.473 25.2585 896.699 25.2559 896.51 25.2559C897.194 25.2559 897.879 25.1442 898.172 25.0967C898.6 25.0271 899.088 24.9348 899.588 24.834C900.595 24.6309 901.831 24.3576 903.106 24.0645C905.352 23.5486 907.838 22.9424 909.675 22.4863H922.776C923.763 22.4863 924.734 22.243 925.604 21.7783L934.646 16.9473H955.264C955.82 16.9472 956.374 16.8694 956.909 16.7168L976 11.2695V167Z" fill="#005BB5"/>
</g>
<path d="M0 48.2969L22.119 44.7351L44.9292 43.0734L67.7394 46.3968L91.2408 44.7351H114.742L137.552 43.0734H158.98L181.099 40.8578L203.218 43.0734L229.484 39.196L248.839 40.8578L269.575 39.196L290.312 37.5343L316.578 39.196L335.932 37.5343L353.904 34.2109L378.096 30.8874L402.289 28.1179H426.482L452.057 26.4562L470.028 28.1179H480.397L497.677 30.8874L517.722 35.8726L538.459 37.5343H546.062L563.343 30.8874L581.314 28.1179L597.212 26.4562L628.317 24.7945L638.686 20.9171L661.496 19.2554L687.762 17.5937H698.821C703.199 18.1476 712.231 19.2554 713.337 19.2554C714.443 19.2554 728.544 20.3632 735.456 20.9171L753.428 24.7945H774.856L795.592 20.9171L810.108 22.5788L837.756 24.7945L855.037 22.5788L884.759 20.9171C888.215 20.3632 895.404 19.2554 896.51 19.2554C897.616 19.2554 905.265 17.409 908.952 16.4859H922.776L933.144 10.9468H955.263L976 5.03125" stroke="#005BB5" stroke-width="2" stroke-linecap="round" stroke-linejoin="round"/>
<defs>
<linearGradient id="paint0_linear_4207_4533" x1="488" y1="0" x2="488" y2="167" gradientUnits="userSpaceOnUse">
<stop/>
<stop offset="1" stop-opacity="0"/>
</linearGradient>
</defs>
</svg>
