<svg width="204" height="48" viewBox="0 0 204 48" fill="none" xmlns="http://www.w3.org/2000/svg">
<mask id="mask0_4003_9436" style="mask-type:alpha" maskUnits="userSpaceOnUse" x="1" y="0" width="202" height="56">
<rect width="202" height="56" transform="translate(1)" fill="url(#paint0_linear_4003_9436)"/>
</mask>
<g mask="url(#mask0_4003_9436)">
<path opacity="0.1" d="M181.291 45.3168C181.344 45.33 181.399 45.3387 181.453 45.3429L202.077 46.929C202.598 46.9691 203 47.4035 203 47.926V55.5C203 56.0523 202.552 56.5 202 56.5H2C1.44772 56.5 1 56.0523 1 55.5V10C1 9.44772 1.44772 9 2 9H8.07824C8.16852 9 8.25839 8.98777 8.34539 8.96365L29.5246 3.09218C29.7401 3.03246 29.9693 3.04665 30.1757 3.13249L51.381 11.9505C51.46 11.9834 51.5429 12.0059 51.6277 12.0177L73.0353 14.9851C73.1068 14.995 73.177 15.0126 73.2447 15.0376L94.5503 22.913C94.7048 22.9701 94.8711 22.9882 95.0343 22.9655L116.246 20.0253C116.367 20.0086 116.489 20.0141 116.608 20.0415L137.885 24.9568C138.008 24.9853 138.125 25.0371 138.229 25.1093L159.563 39.895C159.663 39.9644 159.775 40.0149 159.893 40.0441L181.291 45.3168Z" fill="#F04438"/>
</g>
<path d="M203 47L181.453 45.3429C181.399 45.3387 181.344 45.33 181.291 45.3168L159.893 40.0441C159.775 40.0149 159.663 39.9644 159.563 39.895L138.229 25.1093C138.125 25.0371 138.008 24.9853 137.885 24.9568L116.608 20.0415C116.489 20.0141 116.367 20.0086 116.246 20.0253L95.0343 22.9655C94.8711 22.9882 94.7048 22.9701 94.5503 22.913L73.2447 15.0376C73.177 15.0126 73.1068 14.995 73.0353 14.9851L51.6277 12.0177C51.5429 12.0059 51.46 11.9834 51.381 11.9505L30.1757 3.13249C29.9693 3.04665 29.7401 3.03246 29.5246 3.09218L8.34539 8.96365C8.25839 8.98777 8.16852 9 8.07824 9H1" stroke="#F04438" stroke-width="2" stroke-linecap="round" stroke-linejoin="round"/>
<defs>
<linearGradient id="paint0_linear_4003_9436" x1="101" y1="0" x2="101" y2="56" gradientUnits="userSpaceOnUse">
<stop/>
<stop offset="1" stop-opacity="0"/>
</linearGradient>
</defs>
</svg>
