<svg width="906" height="188" viewBox="0 0 906 188" preserveAspectRatio="none" fill="none" xmlns="http://www.w3.org/2000/svg">
<g clip-path="url(#clip0_4208_5746)">
<mask id="mask0_4208_5746" style="mask-type:alpha" maskUnits="userSpaceOnUse" x="0" y="46" width="906" height="142">
<rect width="906" height="142" transform="translate(0 46)" fill="url(#paint0_linear_4208_5746)"/>
</mask>
<g mask="url(#mask0_4208_5746)">
<path opacity="0.08" fill-rule="evenodd" clip-rule="evenodd" d="M0 89.2299V188H906V51.2587L888.321 56.0535C887.809 56.1923 887.281 56.2634 886.751 56.2635H867.653L859.311 60.5017C858.469 60.9293 857.538 61.1521 856.594 61.1521H844.453C842.748 61.5544 840.448 62.0875 838.368 62.5418C837.183 62.8007 836.034 63.0418 835.097 63.2215C834.631 63.3107 834.177 63.3931 833.776 63.4549C833.505 63.4968 832.858 63.5965 832.211 63.5965C832.306 63.5965 832.301 63.597 832.148 63.6126C832.001 63.6277 831.714 63.657 831.246 63.7137C830.477 63.8068 829.486 63.9388 828.401 64.0896C826.237 64.3905 823.794 64.753 822.207 64.9949C822.013 65.0244 821.818 65.044 821.622 65.0545L794.241 66.5096L778.397 68.4412C778.005 68.489 777.61 68.4975 777.216 68.4676L751.55 66.5125C751.485 66.5076 751.421 66.5019 751.356 66.4949L738.734 65.1209L720.332 68.3924C719.985 68.454 719.634 68.4851 719.282 68.4851H699.391C698.986 68.4851 698.582 68.4444 698.186 68.3631L681.872 65.0164C678.672 64.7729 674.016 64.4237 669.985 64.1306C667.888 63.9781 665.967 63.8412 664.511 63.743C662.916 63.6353 662.19 63.5974 662.176 63.5965C661.544 63.5965 660.46 63.4907 659.612 63.406C658.584 63.3033 657.285 63.1633 655.91 63.0096C653.315 62.7193 650.386 62.374 648.348 62.1297H638.616L614.413 63.5857L614.412 63.5847L594.114 64.991L585.264 68.1385C584.715 68.3337 584.14 68.4478 583.558 68.4773L554.832 69.9363L540.352 71.3758L524.419 73.7097L508.959 79.365C508.299 79.6065 507.601 79.7302 506.898 79.7303H499.84C499.688 79.7303 499.535 79.7242 499.384 79.7127L480.135 78.2459C479.823 78.2221 479.514 78.1742 479.21 78.1023L460.842 73.7586L445.486 71.4187H436.317C436.142 71.4187 435.967 71.4106 435.792 71.3953L419.551 69.9676L396.264 71.407C396.14 71.4146 396.017 71.4187 395.894 71.4187H373.763L351.678 73.8221L329.431 76.7283L312.878 79.6394C312.696 79.6715 312.512 79.6947 312.327 79.7097L294.36 81.1765C294.078 81.1996 293.795 81.2023 293.513 81.1853L269.535 79.7439L250.696 81.1795L231.447 82.6463C231.133 82.6702 230.817 82.669 230.503 82.6433L213.201 81.2303L189.477 84.5603C189.012 84.6255 188.541 84.6361 188.074 84.5916L168.11 82.6902L148.146 84.5916C147.958 84.6096 147.768 84.6189 147.578 84.6189H127.89L106.928 86.0711C106.79 86.0806 106.651 86.0857 106.513 86.0857H84.8965L63.2832 87.5388C62.8743 87.5663 62.4636 87.5521 62.0576 87.4959L41.498 84.6472L21.1953 86.0535L0.908203 89.1599C0.60298 89.2067 0.299613 89.2295 0 89.2299Z" fill="#005BB5"/>
</g>
<path d="M0 83.2295L20.5326 80.0858L41.7068 78.6191L62.881 81.5524L84.6969 80.0858H106.513L127.687 78.6191H147.578L168.11 76.6635L188.643 78.6191L213.025 75.1968L230.991 76.6635L250.241 75.1968L269.49 73.7301L293.873 75.1968L311.839 73.7301L328.521 70.7968L350.979 67.8634L373.436 65.4189H395.894L419.635 63.9523L436.317 65.4189H445.942L461.983 67.8634L480.591 72.2635L499.84 73.7301H506.898L522.939 67.8634L539.622 65.4189L554.38 63.9523L583.254 62.4856L592.878 59.0633L614.052 57.5966L638.435 56.13H648.701C652.765 56.6189 661.149 57.5966 662.176 57.5966C663.202 57.5966 676.292 58.5744 682.708 59.0633L699.391 62.4856H719.282L738.531 59.0633L752.006 60.53L777.671 62.4856L793.712 60.53L821.303 59.0633C824.511 58.5744 831.184 57.5966 832.211 57.5966C833.238 57.5966 840.339 55.967 843.761 55.1522H856.593L866.218 50.2632H886.751L906 45.042" stroke="#F04438" stroke-width="2" stroke-linecap="round" stroke-linejoin="round"/>
<path d="M0 121.262L20.5326 119.26L41.7068 118.326L62.881 120.194L84.6969 119.26H106.513L127.687 118.326H147.578L168.11 117.08L188.643 118.326L213.025 116.146L230.991 117.08L250.241 116.146L269.49 115.211L293.873 116.146L311.839 115.211L328.521 113.343L350.979 111.474L373.436 109.917H395.894L419.635 108.983L436.317 109.917H445.942L461.983 111.474L480.591 114.277L499.84 115.211H506.898L522.939 111.474L539.622 109.917L554.38 108.983L583.254 108.049L592.878 105.869L614.052 104.935L638.435 104H648.701C652.765 104.312 661.149 104.935 662.176 104.935C663.202 104.935 676.292 105.557 682.708 105.869L699.391 108.049H719.282L738.531 105.869L752.006 106.803L777.671 108.049L793.712 106.803L821.303 105.869C824.511 105.557 831.184 104.935 832.211 104.935C833.238 104.935 840.339 103.897 843.761 103.378H856.593L866.218 100.263H886.751L906 96.9375" stroke="#2D88D6" stroke-width="2" stroke-linecap="round" stroke-linejoin="round"/>
</g>
<defs>
<linearGradient id="paint0_linear_4208_5746" x1="453" y1="0" x2="453" y2="142" gradientUnits="userSpaceOnUse">
<stop/>
<stop offset="1" stop-opacity="0"/>
</linearGradient>
<clipPath id="clip0_4208_5746">
<rect width="906" height="188" fill="white"/>
</clipPath>
</defs>
</svg>
