<svg width="704" height="213" viewBox="0 0 704 213" preserveAspectRatio="none" fill="none" xmlns="http://www.w3.org/2000/svg">
<g clip-path="url(#clip0_4207_5013)">
<mask id="mask0_4207_5013" style="mask-type:alpha" maskUnits="userSpaceOnUse" x="0" y="46" width="704" height="167">
<rect width="704" height="167" transform="translate(0 46)" fill="url(#paint0_linear_4207_5013)"/>
</mask>
<g mask="url(#mask0_4207_5013)">
<path opacity="0.08" d="M704 213H0V100.296C0.431293 100.296 0.869208 100.25 1.30762 100.152L16.9082 96.6689L32.1064 95.1338L47.6729 98.2783C48.2561 98.3961 48.8541 98.4262 49.4463 98.3682L66.0996 96.7354H82.7646C82.966 96.7354 83.1678 96.7253 83.3682 96.7051L99.5215 95.0732H114.674C114.95 95.0732 115.227 95.0546 115.5 95.0166L130.629 92.915L145.758 95.0166C146.433 95.1103 147.119 95.0877 147.786 94.9512L165.781 91.2686L178.781 92.8154C179.237 92.8696 179.697 92.8719 180.152 92.8213L195.11 91.1592L209.475 89.5635L227.827 91.1729C228.238 91.2089 228.651 91.203 229.061 91.1543L243.021 89.4922C243.284 89.4609 243.545 89.4125 243.802 89.3467L256.581 86.0693L273.74 82.8008L290.648 80.1182H307.626C307.806 80.1182 307.985 80.1099 308.164 80.0938L325.959 78.4902L338.274 80.0693C338.527 80.1017 338.782 80.1182 339.037 80.1182H345.86L357.344 82.6689L371.483 87.5449C371.902 87.6894 372.336 87.787 372.776 87.8359L387.734 89.498C387.954 89.5225 388.175 89.5342 388.396 89.5342H393.881C394.866 89.5342 395.835 89.2915 396.704 88.8281L408.424 82.5781L420.368 80.0264L431.438 78.4229L453.655 76.7783C454.464 76.7184 455.253 76.4945 455.974 76.1211L462.436 72.7705L477.675 71.2314L496.348 69.5938H503.552C505.127 69.8684 507.291 70.2388 509.223 70.5537C510.296 70.7288 511.323 70.891 512.145 71.0107C512.703 71.0922 513.793 71.2558 514.538 71.2559C514.357 71.2559 514.726 71.2751 516.079 71.4082C517.2 71.5185 518.685 71.6722 520.312 71.8447C523.341 72.1658 526.826 72.5482 529.299 72.8223L541.736 76.543C542.294 76.7098 542.874 76.7949 543.456 76.7949H558.912C559.42 76.7949 559.926 76.73 560.418 76.6025L574.165 73.0381L583.399 74.5049C583.492 74.5195 583.585 74.5317 583.678 74.542L603.621 76.7578C604.191 76.8211 604.768 76.8026 605.333 76.7021L617.51 74.5371L638.65 72.8994C638.932 72.8776 639.212 72.8357 639.488 72.7744C640.711 72.5027 642.593 72.0954 644.253 71.7588C645.087 71.5897 645.831 71.4454 646.396 71.3457C646.681 71.2954 646.882 71.2628 647.008 71.2451L647.01 71.2441C647.721 71.2054 648.326 71.0642 648.485 71.0283C648.86 70.9441 649.261 70.838 649.643 70.7314C650.415 70.5156 651.342 70.2304 652.273 69.9336C653.745 69.465 655.35 68.9244 656.631 68.4863H665.609C666.895 68.4863 668.147 68.0727 669.18 67.3076L675.067 62.9473H689.043C689.798 62.9472 690.547 62.8041 691.249 62.5264L704 57.4824V213Z" fill="#005BB5"/>
</g>
<path d="M0 94.2969L15.9547 90.7351L32.4079 89.0734L48.8612 92.3968L65.813 90.7351H82.7649L99.2181 89.0734H114.674L130.629 86.8578L146.584 89.0734L165.53 85.196L179.49 86.8578L194.448 85.196L209.405 83.5343L228.351 85.196L242.312 83.5343L255.275 80.2109L272.725 76.8874L290.176 74.1179H307.626L326.074 72.4562L339.037 74.1179H346.516L358.98 76.8874L373.439 81.8726L388.397 83.5343H393.881L406.346 76.8874L419.309 74.1179L430.776 72.4562L453.212 70.7945L460.691 66.9171L477.144 65.2554L496.091 63.5937H504.068C507.226 64.1476 513.74 65.2554 514.538 65.2554C515.336 65.2554 525.507 66.3632 530.493 66.9171L543.456 70.7945H558.912L573.87 66.9171L584.34 68.5788L604.283 70.7945L616.748 68.5788L638.187 66.9171C640.68 66.3632 645.865 65.2554 646.663 65.2554C647.461 65.2554 652.978 63.409 655.637 62.4859H665.609L673.088 56.9468H689.042L704 51.0312" stroke="#005BB5" stroke-width="2" stroke-linecap="round" stroke-linejoin="round"/>
<path d="M0 137.388L15.9547 135.119L32.4079 134.06L48.8612 136.177L65.813 135.119H82.7649L99.2181 134.06H114.674L130.629 132.649L146.584 134.06L165.53 131.591L179.49 132.649L194.448 131.591L209.405 130.532L228.351 131.591L242.312 130.532L255.275 128.415L272.725 126.298L290.176 124.534H307.626L326.074 123.476L339.037 124.534H346.516L358.98 126.298L373.439 129.474L388.397 130.532H393.881L406.346 126.298L419.309 124.534L430.776 123.476L453.212 122.417L460.691 119.947L477.144 118.889L496.091 117.83H504.068C507.226 118.183 513.74 118.889 514.538 118.889C515.336 118.889 525.507 119.594 530.493 119.947L543.456 122.417H558.912L573.87 119.947L584.34 121.006L604.283 122.417L616.748 121.006L638.187 119.947C640.68 119.594 645.865 118.889 646.663 118.889C647.461 118.889 652.978 117.713 655.637 117.125H665.609L673.088 113.596H689.042L704 109.828" stroke="#2D88D6" stroke-width="2" stroke-linecap="round" stroke-linejoin="round"/>
<path d="M0 191.922L15.9547 185.894L32.4079 183.082L48.8612 188.706L65.813 185.894H82.7649L99.2181 183.082H114.674L130.629 179.333L146.584 183.082L165.53 176.52L179.49 179.333L194.448 176.52L209.405 173.708L228.351 176.52L242.312 173.708L255.275 168.084L272.725 162.46L290.176 157.773H307.626L326.074 154.961L339.037 157.773H346.516L358.98 162.46L373.439 170.896L388.397 173.708H393.881L406.346 162.46L419.309 157.773L430.776 154.961L453.212 152.149L460.691 145.587L477.144 142.775L496.091 139.963H504.068C507.226 140.9 513.74 142.775 514.538 142.775C515.336 142.775 525.507 144.65 530.493 145.587L543.456 152.149H558.912L573.87 145.587L584.34 148.399L604.283 152.149L616.748 148.399L638.187 145.587C640.68 144.65 645.865 142.775 646.663 142.775C647.461 142.775 652.978 139.65 655.637 138.088H665.609L673.088 128.714H689.042L704 118.703" stroke="#004A96" stroke-width="2" stroke-linecap="round" stroke-linejoin="round"/>
</g>
<defs>
<linearGradient id="paint0_linear_4207_5013" x1="352" y1="0" x2="352" y2="167" gradientUnits="userSpaceOnUse">
<stop/>
<stop offset="1" stop-opacity="0"/>
</linearGradient>
<clipPath id="clip0_4207_5013">
<rect width="704" height="213" fill="white"/>
</clipPath>
</defs>
</svg>
