<svg width="36" height="36" viewBox="0 0 36 36" fill="none" xmlns="http://www.w3.org/2000/svg">
<g filter="url(#filter0_dii_4002_3627)">
<path d="M2 7C2 3.68629 4.68629 1 8 1H28C31.3137 1 34 3.68629 34 7V27C34 30.3137 31.3137 33 28 33H8C4.68629 33 2 30.3137 2 27V7Z" fill="white"/>
<path d="M15.7952 24.5C16.3828 25.0186 17.1547 25.3333 18.0001 25.3333C18.8454 25.3333 19.6173 25.0186 20.2049 24.5M23.0001 13.6667C23.0001 12.3406 22.4733 11.0688 21.5356 10.1311C20.5979 9.19345 19.3261 8.66667 18.0001 8.66667C16.674 8.66667 15.4022 9.19345 14.4645 10.1311C13.5268 11.0688 13.0001 12.3406 13.0001 13.6667C13.0001 16.2418 12.3504 18.005 11.6248 19.1712C11.0127 20.1549 10.7066 20.6468 10.7178 20.784C10.7303 20.9359 10.7624 20.9938 10.8849 21.0846C10.9954 21.1667 11.4939 21.1667 12.4908 21.1667H23.5093C24.5062 21.1667 25.0047 21.1667 25.1152 21.0846C25.2377 20.9938 25.2699 20.9359 25.2823 20.784C25.2935 20.6468 24.9875 20.1549 24.3753 19.1712C23.6497 18.005 23.0001 16.2418 23.0001 13.6667Z" stroke="#A4A7AE" stroke-width="1.67" stroke-linecap="round" stroke-linejoin="round"/>
</g>
<defs>
<filter id="filter0_dii_4002_3627" x="0" y="0" width="36" height="36" filterUnits="userSpaceOnUse" color-interpolation-filters="sRGB">
<feFlood flood-opacity="0" result="BackgroundImageFix"/>
<feColorMatrix in="SourceAlpha" type="matrix" values="0 0 0 0 0 0 0 0 0 0 0 0 0 0 0 0 0 0 127 0" result="hardAlpha"/>
<feOffset dy="1"/>
<feGaussianBlur stdDeviation="1"/>
<feColorMatrix type="matrix" values="0 0 0 0 0.0392157 0 0 0 0 0.0496732 0 0 0 0 0.0705882 0 0 0 0.05 0"/>
<feBlend mode="normal" in2="BackgroundImageFix" result="effect1_dropShadow_4002_3627"/>
<feBlend mode="normal" in="SourceGraphic" in2="effect1_dropShadow_4002_3627" result="shape"/>
<feColorMatrix in="SourceAlpha" type="matrix" values="0 0 0 0 0 0 0 0 0 0 0 0 0 0 0 0 0 0 127 0" result="hardAlpha"/>
<feOffset dy="-2"/>
<feComposite in2="hardAlpha" operator="arithmetic" k2="-1" k3="1"/>
<feColorMatrix type="matrix" values="0 0 0 0 0.0392157 0 0 0 0 0.0496732 0 0 0 0 0.0705882 0 0 0 0.05 0"/>
<feBlend mode="normal" in2="shape" result="effect2_innerShadow_4002_3627"/>
<feColorMatrix in="SourceAlpha" type="matrix" values="0 0 0 0 0 0 0 0 0 0 0 0 0 0 0 0 0 0 127 0" result="hardAlpha"/>
<feMorphology radius="1" operator="erode" in="SourceAlpha" result="effect3_innerShadow_4002_3627"/>
<feOffset/>
<feComposite in2="hardAlpha" operator="arithmetic" k2="-1" k3="1"/>
<feColorMatrix type="matrix" values="0 0 0 0 0.0392157 0 0 0 0 0.0496732 0 0 0 0 0.0705882 0 0 0 0.18 0"/>
<feBlend mode="normal" in2="effect2_innerShadow_4002_3627" result="effect3_innerShadow_4002_3627"/>
</filter>
</defs>
</svg>
